<?xml version="1.0" encoding="utf-8"?>
<!-- Generator: Adobe Illustrator 22.0.0, SVG Export Plug-In . SVG Version: 6.00 Build 0)  -->
<svg version="1.1" id="Layer_5" xmlns="http://www.w3.org/2000/svg" xmlns:xlink="http://www.w3.org/1999/xlink" x="0px" y="0px"
	 viewBox="0 0 977.6 979.5" style="enable-background:new 0 0 977.6 979.5;" xml:space="preserve">
<style type="text/css">
	.st0{fill:url(#SVGID_1_);}
	.st1{fill:#F0DC45;}
	.st2{fill:url(#SVGID_2_);}
	.st3{fill:url(#SVGID_3_);}
	.st4{fill:url(#SVGID_4_);}
</style>
<g>
	<linearGradient id="SVGID_1_" gradientUnits="userSpaceOnUse" x1="488.799" y1="6.5154" x2="488.799" y2="958.9899">
		<stop  offset="0" style="stop-color:#6CCAFF"/>
		<stop  offset="0.5744" style="stop-color:#408BFC"/>
		<stop  offset="0.6854" style="stop-color:#0062FF"/>
		<stop  offset="1" style="stop-color:#0530AD"/>
	</linearGradient>
	<circle class="st0" cx="488.8" cy="488.8" r="471.8"/>
	<path d="M488.8,0C218.8,0,0,218.8,0,488.8s218.8,488.8,488.8,488.8s488.8-218.8,488.8-488.8S758.8,0,488.8,0z M801.1,801.1
		c-83.4,83.4-194.3,129.3-312.3,129.3c-118,0-228.9-45.9-312.3-129.3C93.1,717.7,47.2,606.8,47.2,488.8
		c0-118,45.9-228.9,129.3-312.3C259.9,93.1,370.8,47.2,488.8,47.2c118,0,228.9,45.9,312.3,129.3c83.4,83.4,129.3,194.3,129.3,312.3
		C930.4,606.8,884.5,717.7,801.1,801.1z"/>
	<path d="M731.6,483.1c1.5,46.3-15.5,89.4-45,123.9l46.9,28.9c34.7-43.4,54.5-97,52.7-154.6c-1.6-51.2-20.2-98.3-50.7-136.9
		l-48.2,27.2C714.7,403.6,730.3,442.3,731.6,483.1z"/>
	<polygon class="st1" points="516.3,507.3 516.3,507.3 523.7,511.5 	"/>
	<polygon class="st1" points="516.3,507.3 516.3,507.3 523.7,511.5 	"/>
	<path d="M577.5,542.6c4.8-19.7,7-40.2,6.3-61.3c-0.5-15.9-2.7-31.4-6.3-46.3l-50,28.9c0.9,6.3,1.5,12.8,1.7,19.2
		c0.3,10.4-0.3,20.6-1.7,30.7L577.5,542.6z"/>
	<linearGradient id="SVGID_2_" gradientUnits="userSpaceOnUse" x1="449.5382" y1="496.4626" x2="751.5859" y2="496.4626">
		<stop  offset="1.597137e-03" style="stop-color:#FFFF6A"/>
		<stop  offset="0.5744" style="stop-color:#FFE307"/>
		<stop  offset="0.6854" style="stop-color:#FFE100"/>
		<stop  offset="1" style="stop-color:#FF9D0A"/>
	</linearGradient>
	<path class="st2" d="M449.5,488.8c0.7-0.3,1.6-0.9,2.8-1.5c31.7-17.3,244.6-137.9,244.6-137.9l45.3,69.7l9.3,158.4l-54.7,66.2"/>
	<linearGradient id="SVGID_3_" gradientUnits="userSpaceOnUse" x1="675.1313" y1="337.6901" x2="168.7251" y2="337.6901">
		<stop  offset="3.271244e-04" style="stop-color:#FFFFFF;stop-opacity:0.8"/>
		<stop  offset="1" style="stop-color:#FFFFFF;stop-opacity:0.1"/>
	</linearGradient>
	<polygon class="st3" points="403.3,178.9 681.2,321.8 600.6,392.1 395.5,496.5 377.6,344.4 	"/>
	<linearGradient id="SVGID_4_" gradientUnits="userSpaceOnUse" x1="675.1313" y1="658.421" x2="168.7251" y2="658.421">
		<stop  offset="3.271244e-04" style="stop-color:#FFFFFF;stop-opacity:0.8"/>
		<stop  offset="1" style="stop-color:#FFFFFF;stop-opacity:0.1"/>
	</linearGradient>
	<path class="st4" d="M386.6,513.7l-8.9,265.7l36.8,30.1c0,0,78.1-39.1,82.6-40.2c4.5-1.1,189.5-107.7,189.5-107.7L621,606.9
		l-203.2-99.7L386.6,513.7z"/>
	<path d="M786.1,481.3c-2.2-68.6-34.8-129.8-85.6-173.3c-12.4-12.7-30.1-24.9-47.9-35.1L457.1,160c-45.7-26.4-102.8,6.6-102.8,59.3
		v196.1l-132.6-75.4l-28.2,49.2l176,98.6l-178.3,95.9l27.1,53.5l135.9-76.1v197c0,52.8,57.1,85.7,102.8,59.3l195.5-112.9
		c14.3-8.3,28.4-17.8,39.7-27.7C751.9,629.2,788.6,558.8,786.1,481.3z M583.8,481.3c-0.5-15.9-2.7-31.4-6.3-46.3l37.6-21.7
		c10.4,21.9,16.3,45.5,17.1,69.8c0.9,28.7-5.3,56.2-17.1,81.2l-37.5-21.7C582.3,522.9,584.5,502.4,583.8,481.3z M408.9,446.5v-38
		v-196c0-7.7,8.3-12.4,14.9-8.6l207.5,119.8c6.6,3.8,6.6,13.4,0,17.2l-17.7,10.3l-139.3,80.5L427,456.7l-0.2-0.1
		c-1.9,1.3-4.1,2.1-6.6,2.1c-6.2,0-11.3-5.1-11.3-11.3C408.9,447.2,408.9,446.8,408.9,446.5L408.9,446.5z M527.5,513.7L493.3,494
		c-2.3-1.3-4.6-2.5-7-3.5l-2.8-1.6l4.6-2.6c1.8-0.8,3.5-1.7,5.2-2.7l34.2-19.8c0.9,6.3,1.5,12.8,1.7,19.2
		C529.6,493.5,529,503.7,527.5,513.7z M631.3,654L423.8,773.8c-6.6,3.8-14.9-1-14.9-8.6v-196v-38.5l0,0c0-0.2,0-0.4,0-0.6
		c0-6.2,5.1-11.3,11.3-11.3c2.4,0,4.6,0.7,6.4,2l0.1,0l47.6,25.3l139.3,80.5l17.7,10.3C637.9,640.6,637.9,650.1,631.3,654z
		 M686.6,606.9l-24.4-14.8c16.9-33.7,25.8-71.4,24.6-110.8c-1.1-34.1-9.7-66.3-24.3-95.4l24.7-14.4c27.5,32,43.1,70.7,44.4,111.6
		C733.1,529.4,716.1,572.5,686.6,606.9z"/>
</g>
</svg>
